<?xml version="1.0" encoding="UTF-8"?>
<svg id="Layer_2" data-name="Layer 2" xmlns="http://www.w3.org/2000/svg" viewBox="0 0 1084.31 1080.25">
  <defs>
    <style>
      .cls-1 {
        fill: #2b0808;
      }

      .cls-2 {
        fill: #f0c839;
      }
    </style>
  </defs>
  <g id="Layer_1-2" data-name="Layer 1">
    <g>
      <rect class="cls-1" width="1084.31" height="1080.25"/>
      <path class="cls-2" d="M497,520.61v48.38l73.55,17.61s10.88-41.77,10.36-47.56,4.66-52.93-12.95-49.82-70.96,31.39-70.96,31.39Z"/>
      <g>
        <g>
          <g>
            <path class="cls-2" d="M644.09,929c-17.4,0-34.41-2.33-50.66-6.84-16.32,4.53-33.48,6.84-51.28,6.84s-34.41-2.33-50.66-6.84c-16.32,4.53-33.48,6.84-51.28,6.84-50.74,0-96.33-18.76-131.82-54.25-35.46-35.4-54.25-81.01-54.25-131.82s18.76-96.33,54.25-131.82c35.49-35.49,81.07-54.25,131.82-54.25,17.68,0,34.74,2.28,50.96,6.75,16.23-4.47,33.29-6.75,50.98-6.75s34.74,2.28,50.96,6.75c16.23-4.47,33.29-6.75,50.98-6.75,50.7,0,96.26,18.74,131.76,54.19,35.57,35.61,54.31,81.18,54.31,131.88s-18.76,96.35-54.27,131.84c-35.54,35.49-81.1,54.24-131.8,54.24ZM397.78,707.57s-.02.02-.03.03c.01-.01.02-.02.03-.03Z"/>
            <path class="cls-2" d="M338.28,827.06c-50.78,0-96.37-18.77-131.86-54.28-35.45-35.45-54.21-81.04-54.21-131.79,0-17.68,2.28-34.74,6.75-50.96-4.47-16.23-6.75-33.29-6.75-50.98s2.28-34.74,6.75-50.96c-4.47-16.23-6.75-33.29-6.75-50.98,0-50.71,18.74-96.27,54.19-131.77,35.57-35.55,81.14-54.31,131.88-54.31s96.24,18.73,131.75,54.17c35.59,35.63,54.32,81.19,54.32,131.9,0,17.69-2.28,34.75-6.75,50.98,4.47,16.22,6.75,33.28,6.75,50.96s-2.28,34.76-6.75,50.98c4.47,16.22,6.75,33.28,6.75,50.96,0,50.75-18.76,96.34-54.25,131.83-35.51,35.49-81.09,54.25-131.82,54.25ZM303.13,683.59h.06-.06Z"/>
            <path class="cls-2" d="M644.09,521.24c-17.69,0-34.76-2.28-50.98-6.75-16.22,4.47-33.28,6.75-50.96,6.75s-34.76-2.28-50.98-6.75c-16.22,4.47-33.28,6.75-50.96,6.75-50.78,0-96.37-18.77-131.86-54.28-35.44-35.39-54.21-80.99-54.21-131.78s18.76-96.35,54.27-131.84c35.47-35.47,81.06-54.24,131.8-54.24,17.8,0,34.96,2.31,51.28,6.84,16.26-4.51,33.26-6.84,50.66-6.84s34.96,2.31,51.28,6.84c16.26-4.51,33.26-6.84,50.66-6.84,50.7,0,96.26,18.74,131.76,54.2,35.56,35.59,54.31,81.16,54.31,131.88s-18.76,96.33-54.25,131.82c-35.51,35.49-81.09,54.25-131.82,54.25Z"/>
            <path class="cls-2" d="M746.03,827.06c-50.78,0-96.38-18.77-131.86-54.28-35.44-35.41-54.21-81.01-54.21-131.79,0-17.68,2.28-34.74,6.75-50.95-4.47-16.22-6.75-33.29-6.75-50.99s2.28-34.74,6.75-50.95c-4.47-16.22-6.75-33.29-6.75-50.99,0-50.74,18.75-96.31,54.23-131.81,35.53-35.51,81.11-54.27,131.84-54.27s96.24,18.73,131.75,54.17c35.59,35.63,54.32,81.19,54.32,131.9,0,17.69-2.28,34.75-6.75,50.98,4.47,16.22,6.75,33.28,6.75,50.96s-2.28,34.76-6.75,50.98c4.47,16.22,6.75,33.28,6.75,50.96,0,50.75-18.76,96.34-54.25,131.83-35.51,35.49-81.09,54.25-131.82,54.25Z"/>
          </g>
          <g>
            <path class="cls-1" d="M644.09,878.42c-18.04,0-35.17-3.23-50.98-9.53-15.81,6.3-32.94,9.53-50.96,9.53s-35.17-3.23-50.98-9.53c-15.81,6.3-32.94,9.53-50.96,9.53-37.04,0-70.26-13.64-96.06-39.44-25.78-25.74-39.43-58.97-39.43-96.06s13.64-70.26,39.43-96.06c25.8-25.79,59.02-39.43,96.06-39.43,18.03,0,35.15,3.23,50.96,9.53,15.81-6.3,32.94-9.53,50.98-9.53s35.15,3.23,50.96,9.53c15.81-6.3,32.94-9.53,50.98-9.53,37.01,0,70.21,13.63,96.02,39.4,25.84,25.88,39.47,59.08,39.47,96.09s-13.64,70.27-39.44,96.07c-25.83,25.8-59.04,39.43-96.04,39.43Z"/>
            <path class="cls-1" d="M338.28,776.48c-37.07,0-70.29-13.64-96.08-39.46-25.77-25.78-39.41-58.99-39.41-96.04,0-18.03,3.23-35.15,9.53-50.96-6.3-15.81-9.53-32.94-9.53-50.98s3.23-35.15,9.53-50.96c-6.3-15.81-9.53-32.94-9.53-50.98,0-37.01,13.63-70.22,39.4-96.03,25.84-25.83,59.06-39.47,96.09-39.47s70.2,13.62,96.01,39.39c25.85,25.89,39.48,59.09,39.48,96.11,0,18.04-3.23,35.17-9.53,50.98,6.3,15.81,9.53,32.94,9.53,50.96s-3.23,35.17-9.53,50.98c6.3,15.81,9.53,32.94,9.53,50.96,0,37.05-13.64,70.26-39.43,96.06-25.81,25.8-59.03,39.43-96.06,39.43Z"/>
            <path class="cls-1" d="M644.09,470.66c-18.04,0-35.17-3.23-50.98-9.53-15.81,6.3-32.93,9.53-50.96,9.53s-35.17-3.23-50.98-9.53c-15.81,6.3-32.93,9.53-50.96,9.53-37.06,0-70.29-13.64-96.08-39.46-25.76-25.73-39.41-58.95-39.41-96.03s13.64-70.27,39.44-96.07c25.79-25.79,59-39.43,96.04-39.43,18.02,0,35.15,3.24,50.96,9.53,15.81-6.3,32.94-9.53,50.98-9.53s35.15,3.24,50.96,9.53c15.81-6.3,32.94-9.53,50.98-9.53,37.01,0,70.21,13.63,96.02,39.41,25.84,25.86,39.47,59.07,39.47,96.09s-13.64,70.26-39.43,96.06c-25.81,25.8-59.03,39.43-96.06,39.43Z"/>
            <path class="cls-1" d="M746.03,776.48c-37.07,0-70.29-13.64-96.08-39.46-25.77-25.75-39.41-58.97-39.41-96.04,0-18.03,3.23-35.15,9.52-50.95-6.29-15.8-9.52-32.94-9.52-50.99s3.23-35.15,9.52-50.95c-6.29-15.8-9.52-32.93-9.52-50.98,0-37.03,13.63-70.25,39.42-96.05,25.82-25.81,59.04-39.44,96.07-39.44s70.2,13.62,96.01,39.39c25.85,25.89,39.48,59.09,39.48,96.11,0,18.04-3.23,35.17-9.53,50.98,6.3,15.81,9.53,32.94,9.53,50.96s-3.23,35.17-9.53,50.98c6.3,15.81,9.53,32.94,9.53,50.96,0,37.05-13.64,70.26-39.43,96.06-25.81,25.8-59.03,39.43-96.06,39.43Z"/>
          </g>
          <g>
            <path class="cls-2" d="M644.09,677.68c-18.35,0-33.82,6.29-46.38,18.86-1.64,1.64-3.16,3.34-4.59,5.08-1.43-1.74-2.95-3.43-4.59-5.08-12.58-12.57-28.03-18.86-46.38-18.86s-33.82,6.29-46.38,18.86c-1.64,1.64-3.16,3.34-4.59,5.08-1.43-1.74-2.95-3.43-4.59-5.08-12.58-12.57-28.03-18.86-46.38-18.86s-33.81,6.29-46.38,18.86c-12.58,12.58-18.86,28.03-18.86,46.38s6.27,33.82,18.86,46.38c12.57,12.57,28.03,18.86,46.38,18.86s33.8-6.29,46.38-18.86c1.64-1.64,3.16-3.33,4.59-5.07,1.43,1.74,2.95,3.43,4.59,5.07,12.56,12.57,28.03,18.86,46.38,18.86s33.8-6.29,46.38-18.86c1.64-1.64,3.16-3.33,4.59-5.07,1.43,1.74,2.95,3.43,4.59,5.07,12.56,12.57,28.03,18.86,46.38,18.86s33.8-6.29,46.38-18.86c12.57-12.57,18.86-28.03,18.86-46.38s-6.29-33.8-18.86-46.38c-12.58-12.57-28.03-18.86-46.38-18.86Z"/>
            <path class="cls-2" d="M403.51,640.98c0-18.35-6.29-33.8-18.86-46.38-1.64-1.64-3.34-3.16-5.08-4.59,1.74-1.43,3.43-2.95,5.08-4.59,12.57-12.57,18.86-28.03,18.86-46.38s-6.29-33.8-18.86-46.38c-1.64-1.64-3.34-3.16-5.08-4.58,1.74-1.43,3.44-2.95,5.08-4.59,12.57-12.57,18.86-28.03,18.86-46.38s-6.29-33.8-18.86-46.38c-12.58-12.57-28.03-18.86-46.38-18.86s-33.81,6.29-46.38,18.86c-12.57,12.58-18.86,28.03-18.86,46.38s6.29,33.81,18.86,46.38c1.64,1.64,3.33,3.16,5.07,4.59-1.74,1.43-3.43,2.95-5.07,4.58-12.57,12.58-18.86,28.03-18.86,46.38s6.29,33.82,18.86,46.38c1.64,1.64,3.33,3.16,5.07,4.59-1.74,1.43-3.43,2.95-5.07,4.59-12.57,12.58-18.86,28.03-18.86,46.38s6.29,33.82,18.86,46.38c12.57,12.58,28.03,18.86,46.38,18.86s33.8-6.28,46.38-18.86c12.57-12.57,18.86-28.03,18.86-46.38Z"/>
            <path class="cls-2" d="M440.21,400.41c18.35,0,33.8-6.28,46.38-18.86,1.64-1.64,3.16-3.33,4.59-5.07,1.43,1.74,2.95,3.43,4.59,5.07,12.56,12.58,28.03,18.86,46.38,18.86s33.8-6.28,46.38-18.86c1.64-1.64,3.16-3.33,4.59-5.07,1.43,1.74,2.95,3.43,4.59,5.07,12.56,12.58,28.03,18.86,46.38,18.86s33.8-6.28,46.38-18.86c12.57-12.57,18.86-28.03,18.86-46.38s-6.29-33.8-18.86-46.38c-12.58-12.57-28.03-18.86-46.38-18.86s-33.82,6.29-46.38,18.86c-1.64,1.64-3.16,3.34-4.59,5.08-1.43-1.74-2.95-3.43-4.59-5.08-12.58-12.57-28.03-18.86-46.38-18.86s-33.82,6.29-46.38,18.86c-1.64,1.64-3.16,3.34-4.59,5.08-1.43-1.74-2.95-3.43-4.59-5.08-12.58-12.57-28.03-18.86-46.38-18.86s-33.81,6.29-46.38,18.86c-12.58,12.58-18.86,28.03-18.86,46.38s6.27,33.81,18.86,46.38c12.57,12.58,28.03,18.86,46.38,18.86Z"/>
            <path class="cls-2" d="M811.27,539.05c0-18.35-6.29-33.8-18.86-46.38-1.64-1.64-3.34-3.16-5.08-4.58,1.74-1.43,3.44-2.95,5.08-4.59,12.57-12.57,18.86-28.03,18.86-46.38s-6.29-33.8-18.86-46.38c-12.58-12.57-28.03-18.86-46.38-18.86s-33.82,6.29-46.39,18.86c-12.58,12.58-18.86,28.03-18.86,46.38s6.28,33.81,18.86,46.38c1.64,1.64,3.33,3.16,5.07,4.59-1.74,1.43-3.43,2.95-5.07,4.58-12.58,12.58-18.86,28.03-18.86,46.38s6.28,33.82,18.86,46.38c1.64,1.64,3.33,3.16,5.07,4.59-1.74,1.43-3.43,2.95-5.07,4.59-12.58,12.58-18.86,28.03-18.86,46.38s6.28,33.82,18.86,46.38c12.57,12.58,28.03,18.86,46.39,18.86s33.8-6.28,46.38-18.86c12.57-12.57,18.86-28.03,18.86-46.38s-6.29-33.8-18.86-46.38c-1.64-1.64-3.34-3.16-5.08-4.59,1.74-1.43,3.43-2.95,5.08-4.59,12.57-12.57,18.86-28.03,18.86-46.38Z"/>
          </g>
          <g>
            <path class="cls-2" d="M644.09,677.68c-18.35,0-33.82,6.29-46.38,18.86-1.64,1.64-3.16,3.34-4.59,5.08-1.43-1.74-2.95-3.43-4.59-5.08-12.58-12.57-28.03-18.86-46.38-18.86s-33.82,6.29-46.38,18.86c-1.64,1.64-3.16,3.34-4.59,5.08-1.43-1.74-2.95-3.43-4.59-5.08-12.58-12.57-28.03-18.86-46.38-18.86s-33.81,6.29-46.38,18.86c-12.58,12.58-18.86,28.03-18.86,46.38s6.27,33.82,18.86,46.38c12.57,12.57,28.03,18.86,46.38,18.86s33.8-6.29,46.38-18.86c1.64-1.64,3.16-3.33,4.59-5.07,1.43,1.74,2.95,3.43,4.59,5.07,12.56,12.57,28.03,18.86,46.38,18.86s33.8-6.29,46.38-18.86c1.64-1.64,3.16-3.33,4.59-5.07,1.43,1.74,2.95,3.43,4.59,5.07,12.56,12.57,28.03,18.86,46.38,18.86s33.8-6.29,46.38-18.86c12.57-12.57,18.86-28.03,18.86-46.38s-6.29-33.8-18.86-46.38c-12.58-12.57-28.03-18.86-46.38-18.86Z"/>
            <path class="cls-2" d="M403.51,640.98c0-18.35-6.29-33.8-18.86-46.38-1.64-1.64-3.34-3.16-5.08-4.59,1.74-1.43,3.43-2.95,5.08-4.59,12.57-12.57,18.86-28.03,18.86-46.38s-6.29-33.8-18.86-46.38c-1.64-1.64-3.34-3.16-5.08-4.58,1.74-1.43,3.44-2.95,5.08-4.59,12.57-12.57,18.86-28.03,18.86-46.38s-6.29-33.8-18.86-46.38c-12.58-12.57-28.03-18.86-46.38-18.86s-33.81,6.29-46.38,18.86c-12.57,12.58-18.86,28.03-18.86,46.38s6.29,33.81,18.86,46.38c1.64,1.64,3.33,3.16,5.07,4.59-1.74,1.43-3.43,2.95-5.07,4.58-12.57,12.58-18.86,28.03-18.86,46.38s6.29,33.82,18.86,46.38c1.64,1.64,3.33,3.16,5.07,4.59-1.74,1.43-3.43,2.95-5.07,4.59-12.57,12.58-18.86,28.03-18.86,46.38s6.29,33.82,18.86,46.38c12.57,12.58,28.03,18.86,46.38,18.86s33.8-6.28,46.38-18.86c12.57-12.57,18.86-28.03,18.86-46.38Z"/>
            <path class="cls-2" d="M440.21,400.41c18.35,0,33.8-6.28,46.38-18.86,1.64-1.64,3.16-3.33,4.59-5.07,1.43,1.74,2.95,3.43,4.59,5.07,12.56,12.58,28.03,18.86,46.38,18.86s33.8-6.28,46.38-18.86c1.64-1.64,3.16-3.33,4.59-5.07,1.43,1.74,2.95,3.43,4.59,5.07,12.56,12.58,28.03,18.86,46.38,18.86s33.8-6.28,46.38-18.86c12.57-12.57,18.86-28.03,18.86-46.38s-6.29-33.8-18.86-46.38c-12.58-12.57-28.03-18.86-46.38-18.86s-33.82,6.29-46.38,18.86c-1.64,1.64-3.16,3.34-4.59,5.08-1.43-1.74-2.95-3.43-4.59-5.08-12.58-12.57-28.03-18.86-46.38-18.86s-33.82,6.29-46.38,18.86c-1.64,1.64-3.16,3.34-4.59,5.08-1.43-1.74-2.95-3.43-4.59-5.08-12.58-12.57-28.03-18.86-46.38-18.86s-33.81,6.29-46.38,18.86c-12.58,12.58-18.86,28.03-18.86,46.38s6.27,33.81,18.86,46.38c12.57,12.58,28.03,18.86,46.38,18.86Z"/>
            <path class="cls-2" d="M811.27,539.05c0-18.35-6.29-33.8-18.86-46.38-1.64-1.64-3.34-3.16-5.08-4.58,1.74-1.43,3.44-2.95,5.08-4.59,12.57-12.57,18.86-28.03,18.86-46.38s-6.29-33.8-18.86-46.38c-12.58-12.57-28.03-18.86-46.38-18.86s-33.82,6.29-46.39,18.86c-12.58,12.58-18.86,28.03-18.86,46.38s6.28,33.81,18.86,46.38c1.64,1.64,3.33,3.16,5.07,4.59-1.74,1.43-3.43,2.95-5.07,4.58-12.58,12.58-18.86,28.03-18.86,46.38s6.28,33.82,18.86,46.38c1.64,1.64,3.33,3.16,5.07,4.59-1.74,1.43-3.43,2.95-5.07,4.59-12.58,12.58-18.86,28.03-18.86,46.38s6.28,33.82,18.86,46.38c12.57,12.58,28.03,18.86,46.39,18.86s33.8-6.28,46.38-18.86c12.57-12.57,18.86-28.03,18.86-46.38s-6.29-33.8-18.86-46.38c-1.64-1.64-3.34-3.16-5.08-4.59,1.74-1.43,3.43-2.95,5.08-4.59,12.57-12.57,18.86-28.03,18.86-46.38Z"/>
          </g>
        </g>
        <path class="cls-1" d="M438.74,525.69l-10.4,106.36,113.81,13.24s80.01-10.4,83.31-13.24c3.31-2.84,28.36-127.16,28.36-127.16l-55.31-68.54-142.76,3.31-27.42,79.42,10.4,6.62Z"/>
      </g>
    </g>
  </g>
</svg>